<svg width="16px" height="16px" viewBox="0 0 16 13" version="1.1" xmlns="http://www.w3.org/2000/svg" xmlns:xlink="http://www.w3.org/1999/xlink">
  <title>icon-menu</title>
  <defs></defs>
  <g id="icon-menu"> 
    <path d="M15,4.5 L1,4.5 C0.724,4.5 0.5,4.276 0.5,4 C0.5,3.724 0.724,3.5 1,3.5 L15,3.5 C15.276,3.5 15.5,3.724 15.5,4 C15.5,4.276 15.276,4.5 15,4.5 Z M15,8.5 L1,8.5 C0.724,8.5 0.5,8.276 0.5,8 C0.5,7.724 0.724,7.5 1,7.5 L15,7.5 C15.276,7.5 15.5,7.724 15.5,8 C15.5,8.276 15.276,8.5 15,8.5 Z M15,12.5 L1,12.5 C0.724,12.5 0.5,12.276 0.5,12 C0.5,11.724 0.724,11.5 1,11.5 L15,11.5 C15.276,11.5 15.5,11.724 15.5,12 C15.5,12.276 15.276,12.5 15,12.5 Z" id="icon" fill="#000000"></path>
  </g>
</svg>