<svg width="16px" height="16px" viewBox="0 0 16 13" version="1.1" xmlns="http://www.w3.org/2000/svg" xmlns:xlink="http://www.w3.org/1999/xlink">
  <title>icon-search</title>
  <defs></defs>
  <g id="icon-search"> 
    <path d="M10,9.75 C7.932,9.75 6.25,8.068 6.25,6 C6.25,3.932 7.932,2.25 10,2.25 C12.067,2.25 13.75,3.932 13.75,6 C13.75,8.068 12.067,9.75 10,9.75 M10,1.75 C7.657,1.75 5.75,3.657 5.75,6 C5.75,7.084 6.17,8.064 6.841,8.816 C6.836,8.82 6.828,8.818 6.823,8.823 L2.823,12.823 C2.726,12.921 2.726,13.079 2.823,13.177 C2.872,13.226 2.936,13.25 3,13.25 C3.064,13.25 3.128,13.226 3.177,13.177 L7.177,9.177 C7.182,9.172 7.18,9.164 7.184,9.159 C7.936,9.83 8.916,10.25 10,10.25 C12.344,10.25 14.25,8.343 14.25,6 C14.25,3.657 12.344,1.75 10,1.75" id="icon"></path>
  </g>
</svg>