<svg width="16px" height="16px" viewBox="0 0 16 16" version="1.1" xmlns="http://www.w3.org/2000/svg" xmlns:xlink="http://www.w3.org/1999/xlink">
  <title>icon-date</title>
  <defs></defs>
  <g id="icon-date"> 
    <path class="st0" d="M14,2.8h-1.8V1c0-0.1-0.1-0.2-0.2-0.2S11.8,0.9,11.8,1v1.8h-1.5V1c0-0.1-0.1-0.2-0.2-0.2S9.8,0.9,9.8,1v1.8H8.2
  V1c0-0.1-0.1-0.2-0.2-0.2S7.8,0.9,7.8,1v1.8H6.2V1c0-0.1-0.1-0.2-0.2-0.2S5.8,0.9,5.8,1v1.8H4.2V1c0-0.1-0.1-0.2-0.2-0.2
  S3.8,0.9,3.8,1v1.8H2C1.9,2.8,1.8,2.9,1.8,3v3v9c0,0.1,0.1,0.2,0.2,0.2h12c0.1,0,0.2-0.1,0.2-0.2V6V3C14.2,2.9,14.1,2.8,14,2.8z
   M13.8,14.8H2.2V6.2h11.5V14.8z M13.8,5.8H2.2V3.2h11.5V5.8z M9.7,13.5H7.6c-0.1,0-0.2-0.1-0.2-0.2v-2.9H6.3c-0.1,0-0.2-0.1-0.2-0.2
  V8.9c0-0.1,0.1-0.2,0.2-0.2c1.4,0,1.4-0.7,1.4-0.9c0-0.1,0.1-0.2,0.2-0.2h1.7c0.1,0,0.2,0.1,0.2,0.2v5.5C10,13.4,9.8,13.5,9.7,13.5z
   M7.9,13h1.6V8H8.2C8.1,8.5,7.7,9.1,6.5,9.2v0.7h1.1c0.1,0,0.2,0.1,0.2,0.2V13z" id="icon" fill="#000000" />
  </g>
</svg>